<svg version="1.2" xmlns="http://www.w3.org/2000/svg" viewBox="0 0 584 228" width="584" height="228">
	<title>helixSenseLogo-svg</title>
	<style>
		.s0 { fill: #fefefe } 
		.s1 { fill: #fefeff } 
		.s2 { mix-blend-mode: color-dodge;fill: #fbfcfd } 
	</style>
	<g id="Layer">
		<path id="Layer" class="s0" d="m175.7 145.7q0.9-0.7 1.8-1.4 0.9-0.8 1.8-1.6 0.9-0.8 1.7-1.6 0.8-0.9 1.7-1.7 0.9-1 1.8-2 0.9-1 1.8-2 0.9-1.1 1.7-2.1 0.8-1.1 1.7-2.1l12-16.1-11.2-17q-1-1.6-2-3.2-1-1.5-2.1-3-1.1-1.6-2.2-3-1.1-1.5-2.2-3-2.9-3.4-4.9-4.2h10.7q0.3 0 0.7 0 0.4 0 0.7 0.1 0.4 0.1 0.8 0.3 0.3 0.2 0.6 0.4 0.5 0.4 1 0.9 0.4 0.6 0.8 1.1 0.4 0.5 0.8 1.1 0.4 0.6 0.7 1.2l13 21.2 7-9.7q0.7-0.9 1.3-1.9 0.6-0.9 1.2-1.8 0.6-1 1.2-2 0.5-0.9 1-1.9 0.3-0.7 0.6-1.4 0.2-0.7 0.4-1.4 0.2-0.7 0.3-1.4 0.1-0.7 0.1-1.4 0-0.5-0.1-0.9 0-0.4-0.1-0.9-0.1-0.4-0.3-0.8-0.2-0.4-0.4-0.8h13q-1.7 1.9-3.4 3.9-1.6 2-3.2 4.1-1.6 2-3.2 4.1-1.5 2.1-3 4.2l-1.4 2-8.6 11.8 18.4 26.4q0.4 0.6 0.9 1.2 0.4 0.6 0.9 1.2 0.4 0.6 0.9 1.1 0.5 0.6 1 1.1 0.4 0.5 0.9 0.9 0.4 0.3 0.9 0.7 0.5 0.4 1 0.7 0.5 0.3 1 0.6h-9.5q-0.5 0.1-1 0-0.5 0-1-0.1-0.5-0.1-1-0.3-0.5-0.1-1-0.4-0.4-0.3-0.9-0.6-0.4-0.4-0.8-0.8-0.3-0.5-0.7-0.9-0.3-0.5-0.6-1l-14.6-23-6.6 9.3q-0.7 1-2.1 3-6.3 8.8-6.3 11.4 0 0.3 0 0.5 0 0.3 0.1 0.5 0 0.3 0.1 0.5 0.1 0.3 0.1 0.5 0.1 0.2 0.2 0.4 0.2 0.2 0.3 0.4 0.1 0.2 0.3 0.3 0.1 0.2 0.3 0.4zm-19 0c0.9-1 1.6-3.3 1.9-6.8 0.4-3.5 0.6-11 0.6-22.5v-4.1q0-18.8-0.6-24-0.5-5.2-1.9-6.7h13.6q-1.4 1.4-2 6.5c-0.3 3.4-0.5 10.6-0.5 21.6v7.8q0 16.6 0.5 21.7 0.6 5.1 2 6.5zm-43.9-64h13.6c-0.9 1-1.6 3.2-1.9 6.7q-0.6 5.3-0.6 22.4v4.1q0 10.8 0.3 17.9 0 1.2 0 2.3 0 1.2 0.1 2.3 0.1 1.2 0.2 2.3 0.2 1.2 0.3 2.3c0.7 0 1.4 0.1 2.1 0.1q1.1 0 3.2 0 7.8 0 12-1.6 1-0.4 2-0.9 1-0.6 1.8-1.3 0.9-0.7 1.6-1.5 0.8-0.8 1.4-1.7l-2.2 10q-2 0.4-4.5 0.6-2.6 0.2-5.5 0.2c-1.4 0-4.5 0-9-0.1-4.6-0.1-8.3-0.1-11.4-0.1h-3.5c0.9-1 1.6-3.2 1.9-6.8 0.4-3.5 0.6-11 0.6-22.5v-4.1q0-18.8-0.6-24-0.5-5.2-1.9-6.7zm-49.3 64c0.9-1 1.5-3.2 1.9-6.7 0.4-3.5 0.6-11 0.6-22.5v-4.1q0-18.9-0.6-24c-0.4-3.5-1-5.7-1.9-6.7h6.2q6.6 0 15-0.1c5.6-0.1 9-0.2 10.1-0.2h0.6c1 0 2 0.1 3 0.1l0.7 9.4q-0.3-0.8-0.7-1.5-0.5-0.7-1.1-1.2-0.6-0.6-1.3-1-0.8-0.4-1.6-0.6-3.5-1.2-13.4-1.2h-5.5q-0.2 0.8-0.3 1.7-0.2 0.9-0.2 1.8-0.1 0.8-0.2 1.7 0 0.9 0 1.8-0.3 4.8-0.3 14v3.3l2.8 0.1c1 0 2.7 0.1 5 0.1q5.9 0 9.9-0.3 0.9-0.1 1.8-0.1 0.9-0.1 1.8-0.2 0.9-0.1 1.7-0.2 0.9-0.2 1.8-0.3-0.7 0.8-1.5 1.5-0.8 0.7-1.8 1.2-0.9 0.6-1.9 1-1 0.5-2 0.8-4.5 1.3-15 1.3l-1.1-0.1c-0.5 0-1 0-1.5 0v6.5q0 9.1 0.3 14 0 0.9 0 1.8 0.1 0.9 0.2 1.7 0.1 0.9 0.2 1.8 0.1 0.9 0.3 1.7h5.7q9.9 0 14.8-1.5 1.2-0.4 2.2-0.9 1.1-0.5 2.1-1.2 1-0.7 1.8-1.5 0.9-0.8 1.6-1.8l-1.7 10q-0.6 0.1-1.1 0.2-0.6 0.1-1.2 0.2-0.5 0.1-1.1 0.1-0.6 0.1-1.1 0.1-2.6 0.2-5.4 0.2c-1.5 0-4.6 0-9.1-0.1-4.5-0.1-8.3-0.1-11.3-0.1zm-22.7-36v-3.4q0-14-0.5-18.5c-0.4-3-1-5-2-6.1h13.6c-1 1-1.7 3.4-2 7.4-0.4 3.9-0.6 13.4-0.6 28.4q0 16.6 0.6 21.7 0.5 5.1 2 6.5h-13.6q1.5-1.7 2-6.5c0.3-3.1 0.5-9.2 0.5-18.2v-7.6h-29.8v7.6q0 14.7 0.6 18.9 0.5 4.3 1.9 5.9h-13.5c0.9-1 1.5-3.2 1.9-6.8 0.3-3.5 0.5-11 0.5-22.5v-4.1q0-18.8-0.5-24-0.5-5.2-1.9-6.6h13.5c-0.9 1-1.6 3-1.9 5.8-0.4 2.7-0.6 9.1-0.6 18.8v3.3z"/>
		<path id="Layer" class="s1" d="m543.4 145.7c0.9-1 1.5-3.2 1.9-6.8 0.4-3.5 0.6-11 0.6-22.5v-4.1q0-18.9-0.6-24-0.5-5.2-1.9-6.7h6.2q6.6 0 15-0.1 8.4-0.2 10.2-0.2 0 0 0.1 0 0.1 0 0.2 0 0 0.1 0.1 0.1 0.1 0 0.1 0c1 0 2 0 3 0l0.7 9.4q-0.3-0.8-0.7-1.5-0.5-0.7-1.1-1.2-0.6-0.6-1.3-1-0.8-0.4-1.6-0.6-3.5-1.2-13.4-1.2h-5.5q-0.2 0.8-0.3 1.7-0.1 0.9-0.2 1.8-0.1 0.8-0.2 1.7 0 0.9 0 1.8-0.3 4.8-0.3 14v3.3c0.9 0 1.8 0.1 2.8 0.1 1.1 0 2.7 0 5 0q5.9 0 9.9-0.2 0.9-0.1 1.8-0.2 0.9 0 1.8-0.2 0.9-0.1 1.7-0.2 0.9-0.1 1.8-0.3-0.7 0.8-1.5 1.5-0.8 0.7-1.8 1.3-0.9 0.6-1.9 1-1 0.4-2 0.7-4.5 1.3-15 1.3h-1.1c-0.6 0-1.1-0.1-1.5-0.1v6.5q0 9.2 0.2 14.1 0.1 0.9 0.1 1.7 0.1 0.9 0.2 1.8 0 0.9 0.2 1.7 0.1 0.9 0.3 1.8h5.7q9.9 0 14.8-1.6 1.2-0.3 2.2-0.8 1.1-0.6 2.1-1.2 1-0.7 1.8-1.5 0.9-0.9 1.6-1.8l-1.7 10q-0.6 0.1-1.1 0.2-0.6 0.1-1.2 0.1-0.5 0.1-1.1 0.2-0.6 0-1.1 0.1-2.6 0.2-5.4 0.2-2.3 0-9.1-0.1-6.8-0.1-11.3-0.1zm-50.8-2.6v-10.9q0.6 1.2 1.5 2.2 0.8 1.1 1.7 2.1 1 0.9 2.1 1.7 1 0.9 2.2 1.6 1.2 0.6 2.5 1.1 1.2 0.5 2.5 0.9 1.4 0.3 2.7 0.4 1.4 0.2 2.7 0.2 1.3 0 2.6-0.2 1.2-0.2 2.5-0.6 1.2-0.4 2.3-1.1 1.1-0.7 2-1.5 0.9-0.9 1.6-1.9 0.7-1 1.2-2.1 0.4-1.2 0.7-2.4 0.2-1.2 0.1-2.4 0.1-1-0.1-2-0.1-0.9-0.5-1.9-0.3-0.9-0.7-1.8-0.5-0.8-1.1-1.6-2.4-3.2-8.2-6.3-0.5-0.3-1.3-0.8-16.8-9.2-16.9-18.7 0-1.7 0.4-3.4 0.3-1.7 1.1-3.3 0.7-1.5 1.8-2.9 1.1-1.3 2.5-2.4 5.7-4.7 15-4.6 3 0 6.5 0.2 3.5 0.1 4.1 0.1 0.2 0 0.8 0.1c0.4 0.1 0.7 0 1 0h2.5v10.4q-0.4-0.8-1-1.5-0.6-0.7-1.2-1.3-0.7-0.6-1.5-1.1-0.7-0.5-1.5-0.9-1-0.5-1.9-0.8-1-0.3-2-0.5-1-0.2-2-0.3-1-0.1-2-0.1-6.3 0-9.9 2.7-0.8 0.7-1.5 1.5-0.7 0.8-1.2 1.8-0.4 0.9-0.7 2-0.2 1-0.2 2.1 0 6.9 13.2 13.9l0.7 0.3q8.2 4.3 11.8 8.6 0.8 1 1.5 2.2 0.7 1.1 1.1 2.4 0.5 1.2 0.7 2.5 0.2 1.3 0.2 2.6 0 8.1-6.5 13.8-1.7 1.4-3.6 2.5-1.9 1.1-4 1.8-2.1 0.7-4.3 1.1-2.2 0.3-4.4 0.3-1 0-2-0.1-1-0.1-2.1-0.2-1-0.1-2-0.3-1-0.1-2-0.3-1.2-0.3-2.4-0.6-1.2-0.3-2.4-0.7-1.2-0.4-2.4-0.8-1.2-0.3-2.3-0.8zm-56.3-53.9l0.3 32.3q0 2.1 0 4.1 0 2.1 0.1 4.2 0.1 2.1 0.3 4.2 0.2 2 0.4 4.1 0.1 1 0.3 2 0.2 1 0.6 1.9 0.3 1 0.7 1.9 0.4 0.9 0.9 1.8h-11.6c1.3-1.7 2.2-5.5 2.8-11.6 0.6-6 0.9-14.8 0.9-26.4q0-15.3-0.8-20-0.8-4.6-2.9-6.1h10.3q2.9 0 6.3 5.2 0.9 1.4 1.4 2.2 2.8 4.1 8.7 13.1 13.6 20.8 21.9 32.2l0.1-28q0-13.5-0.6-18.3c-0.4-3.1-1-5.3-2-6.4h9.5q-1.5 1.4-2 7.3c-0.4 3.9-0.6 11.9-0.6 24v33h-6.4q-3.3-5.2-16.5-24.4-13.2-19.1-22.1-32.3zm-56.1 56.5c0.9-1 1.5-3.2 1.9-6.8 0.4-3.5 0.6-11 0.6-22.5v-4.1q0-18.8-0.6-24-0.5-5.2-1.9-6.7h6.2q6.6 0 15-0.1c5.5-0.1 9-0.2 10.1-0.2q0.1 0 0.2 0 0.1 0.1 0.1 0.1 0.1 0 0.2 0 0.1 0 0.1 0c1 0 2 0 2.9 0l0.8 9.4q-0.3-0.8-0.7-1.5-0.5-0.7-1.1-1.2-0.6-0.6-1.4-1-0.7-0.4-1.5-0.6-3.5-1.2-13.4-1.2h-5.6q-0.1 0.9-0.2 1.7-0.2 0.9-0.2 1.8-0.1 0.9-0.2 1.7 0 0.9-0.1 1.8-0.2 4.8-0.2 14v3.3q1.2 0.1 2.8 0.1c1 0.1 2.7 0 5 0q5.9 0 9.9-0.2 0.9-0.1 1.8-0.2 0.9 0 1.8-0.1 0.9-0.1 1.7-0.3 0.9-0.1 1.8-0.3-0.7 0.8-1.5 1.5-0.8 0.7-1.8 1.3-0.9 0.6-1.9 1-1 0.4-2 0.7-4.5 1.3-15 1.3h-1.1c-0.6 0-1.1-0.1-1.5-0.1v6.5q0 9.2 0.2 14.1 0.1 0.9 0.1 1.7 0.1 0.9 0.2 1.8 0 0.9 0.2 1.8 0.1 0.8 0.2 1.7h5.8q9.9 0 14.8-1.6 1.2-0.3 2.2-0.8 1.1-0.5 2.1-1.2 1-0.7 1.8-1.5 0.9-0.8 1.6-1.8l-1.7 10q-0.6 0.1-1.1 0.2-0.6 0.1-1.2 0.2-0.5 0-1.1 0.1-0.6 0-1.2 0.1-2.5 0.2-5.3 0.2c-1.5 0-4.6 0-9.1-0.1-4.5-0.1-8.3-0.1-11.4-0.1zm-50.8-2.6v-10.9q0.7 1.2 1.5 2.2 0.9 1.1 1.8 2.1 1 0.9 2.1 1.8 1 0.8 2.2 1.5 1.2 0.6 2.4 1.1 1.3 0.5 2.6 0.9 1.3 0.3 2.7 0.4 1.3 0.2 2.6 0.2 1.3 0 2.6-0.2 1.3-0.2 2.5-0.6 1.2-0.4 2.3-1.1 1.1-0.7 2.1-1.5 0.9-0.9 1.6-1.9 0.6-1 1.1-2.1 0.5-1.2 0.7-2.4 0.2-1.2 0.2-2.4 0-1-0.2-2-0.1-0.9-0.4-1.9-0.3-0.9-0.8-1.8-0.5-0.8-1.1-1.6-2.4-3.2-8.2-6.3-0.4-0.3-1.3-0.7-16.8-9.3-16.8-18.8 0-1.7 0.3-3.4 0.4-1.7 1.1-3.2 0.8-1.6 1.9-3 1.1-1.3 2.4-2.4 5.8-4.6 15-4.6 3 0 6.5 0.2 3.5 0.2 4.1 0.1 0.2 0 0.8 0.1c0.4 0.1 0.8 0 1 0h2.5v10.4q-0.4-0.8-1-1.5-0.6-0.7-1.2-1.3-0.7-0.6-1.5-1.1-0.7-0.5-1.5-0.9-1-0.4-1.9-0.8-1-0.3-2-0.5-1-0.2-2-0.3-1-0.1-2-0.1-6.3 0-9.9 2.8-0.8 0.6-1.5 1.4-0.7 0.8-1.2 1.8-0.4 1-0.7 2-0.2 1-0.2 2.1 0 6.9 13.2 13.9l0.7 0.3q8.2 4.4 11.8 8.6 0.8 1.1 1.5 2.2 0.7 1.1 1.1 2.4 0.5 1.2 0.7 2.5 0.2 1.3 0.2 2.6 0 8.1-6.5 13.8-1.7 1.4-3.6 2.5-1.9 1.1-4 1.8-2.1 0.8-4.3 1.1-2.2 0.3-4.4 0.3-1 0-2-0.1-1.1-0.1-2.1-0.2-1-0.1-2-0.3-1-0.1-2-0.3-1.2-0.3-2.4-0.6-1.2-0.3-2.4-0.7-1.2-0.3-2.4-0.7-1.1-0.4-2.3-0.9z"/>
		<path id="Layer" fill-rule="evenodd" class="s2" d="m210.1 226.8c-1.5-4 3.6-10.2 5.8-13.8 2.7-4.5 5.2-8.6 7.9-13l31.8-51.9c7.6-12 8.3-16.2 17.6-25.2l0.1 38.4c0 11-2 11.6-6.6 18.9-4.9 7.8-4.8 7.9-8.6 16.2 13.8 0.4 56 0.8 67.6-0.2-0.2-4-10.8-19.6-13.7-24.3-5.1-8.4-10-15.9-15-24.6-16.3-28.2-41.5-68.2-59.4-97-11.9-19.1-19.3-29.2-27.5-49.3h163.5c1.6 4.1-3.5 10.3-5.7 13.8l-57.4 90.1-0.1-38.5c0-10.5 2.1-11.2 6.7-18.7l8.6-16.5-67.7 0.2c0.3 4.8 25.8 44.3 28.7 49l59.4 97c12.1 19.7 19 28.7 27.7 49.5-4.7 1.5-158.9 2.1-163.7-0.2"/>
	</g>
</svg>